<svg width="27" height="34" viewBox="0 0 27 34" fill="none" xmlns="http://www.w3.org/2000/svg">
<path d="M3.33333 3.66536H5V1.9987C4.99667 0.887031 5.55 0.332031 6.66667 0.332031C7.78333 0.332031 8.34 0.887031 8.34 1.9987V3.66536H18.3333V1.90036C18.3333 0.855365 18.8883 0.332031 20 0.332031C21.1117 0.332031 21.6667 0.855365 21.6667 1.90036V3.66536H23.3333C25.555 3.66536 26.6667 4.77703 26.6667 6.9987V30.332C26.6667 32.5537 25.555 33.6654 23.3333 33.6654H3.33333C1.11167 33.6654 0 32.5537 0 30.332V7.00537C0 4.7787 1.11167 3.66536 3.33333 3.66536ZM3.33333 30.332H23.3333V13.6654H3.33333V30.332ZM3.33333 6.9987V10.332H23.3333V6.9987H3.33333ZM8.33333 20.332C7.22167 20.3337 6.66667 19.7787 6.66667 18.6654C6.66667 17.552 7.225 16.997 8.33667 16.9987H10C11.1117 16.9987 11.6667 17.5537 11.6667 18.6654C11.6667 19.777 11.1117 20.332 10 20.332H8.33333ZM16.6667 20.332C15.555 20.3337 15 19.7787 15 18.6654C15 17.552 15.5583 16.997 16.67 16.9987H18.3333C19.445 16.9987 20 17.5537 20 18.6654C20 19.777 19.445 20.332 18.3333 20.332H16.6667ZM8.33333 26.9987C7.22167 27.0004 6.66667 26.4454 6.66667 25.332C6.66667 24.2187 7.225 23.6637 8.33667 23.6654H10C11.1117 23.6654 11.6667 24.2204 11.6667 25.332C11.6667 26.4437 11.1117 26.9987 10 26.9987H8.33333ZM16.6667 26.9987C15.555 27.0004 15 26.4454 15 25.332C15 24.2187 15.5583 23.6637 16.67 23.6654H18.3333C19.445 23.6654 20 24.2204 20 25.332C20 26.4437 19.445 26.9987 18.3333 26.9987H16.6667Z" fill="#1C2B4F"/>
</svg>
