<svg width="34" height="34" viewBox="0 0 34 34" fill="none" xmlns="http://www.w3.org/2000/svg">
<path fill-rule="evenodd" clip-rule="evenodd" d="M16.6544 0.332031C17.4744 0.332031 18.2177 0.610365 18.8844 1.1687L32.7544 12.407C33.301 12.9887 33.4444 13.617 33.1844 14.2937C32.9244 14.972 32.4094 15.3104 31.6394 15.3137L29.9994 15.332V30.332C29.9994 32.5537 28.8877 33.6654 26.666 33.6654H23.3327C21.111 33.6487 19.9994 32.5387 19.9994 30.332V20.332H13.3327V30.3087C13.3327 32.5154 12.221 33.6254 9.99935 33.642H6.66602C4.44435 33.6587 3.33269 32.5537 3.33269 30.332L3.32602 15.332L1.61269 15.3137C0.807687 15.3137 0.302687 14.9737 0.0943539 14.2937C-0.113979 13.6154 0.0226873 12.9837 0.504354 12.4004L14.4244 1.1687C15.091 0.610365 15.836 0.332031 16.6544 0.332031ZM6.66602 11.9987V30.332H9.99935V20.332C9.99935 18.1104 11.111 16.9987 13.3327 16.9987H19.9994C22.221 16.9987 23.3327 18.1104 23.3327 20.332V30.332H26.6627V11.9987L16.666 4.3637L6.66602 11.9987Z" fill="#1C2B4F"/>
</svg>
