<svg width="24" height="24" viewBox="0 0 24 24" fill="none" xmlns="http://www.w3.org/2000/svg">
<path d="M3.72755 20.7243H1V11.8008" stroke="black" stroke-width="0.5"/>
<path d="M2.34277 10.457H21.6601" stroke="black" stroke-width="0.5"/>
<path d="M22.9995 11.8008V20.7243H19.9502" stroke="black" stroke-width="0.5"/>
<path d="M19.9502 18.0117V20.7243" stroke="black" stroke-width="0.5"/>
<path d="M19.9507 18.0117H3.72754V20.7652" stroke="black" stroke-width="0.5"/>
<path d="M1 15.0234H23" stroke="black" stroke-width="0.5"/>
<path d="M2.34321 10.457L1.92789 10.5244L1.55375 10.7152L1.25816 11.0108L1.06736 11.3849L1 11.8002" stroke="black" stroke-width="0.5"/>
<path d="M22.9996 11.8002L22.936 11.3849L22.7452 11.0108L22.4496 10.7152L22.0755 10.5244L21.6602 10.457" stroke="black" stroke-width="0.5"/>
<path d="M2.91211 10.4578H20.9835V4H2.91211V10.4578Z" stroke="black" stroke-width="0.5"/>
<path d="M4.97363 7.44922V10.4574H10.6607V7.44922" stroke="black" stroke-width="0.5"/>
<path d="M10.1365 6.82812H5.49707" stroke="black" stroke-width="0.5"/>
<path d="M4.97363 7.44921L5.49744 6.82812" stroke="black" stroke-width="0.5"/>
<path d="M10.6595 7.44921L10.1357 6.82812" stroke="black" stroke-width="0.5"/>
<path d="M13.3281 7.44922V10.4574H19.0189V7.44922" stroke="black" stroke-width="0.5"/>
<path d="M18.4912 6.82812H13.8555" stroke="black" stroke-width="0.5"/>
<path d="M13.3281 7.44921L13.8557 6.82812" stroke="black" stroke-width="0.5"/>
<path d="M19.0188 7.44921L18.4912 6.82812" stroke="black" stroke-width="0.5"/>
</svg>
