<svg width="24" height="24" viewBox="0 0 24 24" fill="none" xmlns="http://www.w3.org/2000/svg">
<path d="M2 13.8828V15.9442" stroke="black" stroke-width="0.5"/>
<path d="M2 15.9453L3.31256 19.6286" stroke="black" stroke-width="0.5"/>
<path d="M3.3125 19.625H21.327" stroke="black" stroke-width="0.5"/>
<path d="M2 13.8828H12.3213" stroke="black" stroke-width="0.5"/>
<path d="M22.6396 13.8828V15.9442" stroke="black" stroke-width="0.5"/>
<path d="M22.6397 15.9453L21.3271 19.6286" stroke="black" stroke-width="0.5"/>
<path d="M22.6397 13.8828H12.3213" stroke="black" stroke-width="0.5"/>
<path d="M2 12.7773H22.5356" stroke="black" stroke-width="0.5"/>
<path d="M4.44238 19.625V20.9983" stroke="black" stroke-width="0.5"/>
<path d="M4.44238 21H5.30395" stroke="black" stroke-width="0.5"/>
<path d="M5.30469 20.9983L6.26742 19.625" stroke="black" stroke-width="0.5"/>
<path d="M20.1963 19.625V20.9983" stroke="black" stroke-width="0.5"/>
<path d="M20.1965 21H19.335" stroke="black" stroke-width="0.5"/>
<path d="M19.3348 20.9983L18.3721 19.625" stroke="black" stroke-width="0.5"/>
<path d="M2 12.7792V3.55078H5.23803" stroke="black" stroke-width="0.5"/>
<path d="M8.29536 3.71411L7.93397 3.3932L7.50899 3.15901L7.04063 3.02602L6.5578 3L6.08077 3.08095L5.63266 3.26887L5.23656 3.54931L4.91565 3.9107L4.68147 4.33569L4.54849 4.80405L4.52246 5.28687L4.6034 5.7639L4.79133 6.21203L5.07178 6.60811" stroke="black" stroke-width="0.5"/>
<path d="M5.07324 6.60885L8.29682 3.71484" stroke="black" stroke-width="0.5"/>
<path d="M8.29688 3.71501L8.85196 3.21484" stroke="black" stroke-width="0.5"/>
<path d="M4.51855 7.10953L5.07366 6.60938" stroke="black" stroke-width="0.5"/>
<path d="M6.42578 6.34766L6.78428 8.05053" stroke="black" stroke-width="0.5"/>
<path d="M7.32129 5.72266L8.89116 7.60477" stroke="black" stroke-width="0.5"/>
<path d="M8.10059 4.95312L9.71094 5.6123" stroke="black" stroke-width="0.5"/>
</svg>
