<svg width="24" height="24" viewBox="0 0 24 24" fill="none" xmlns="http://www.w3.org/2000/svg">
<path d="M2.95312 12.6411L3.01467 11.9836L3.19606 11.3487L3.49082 10.7592L3.88923 10.2312L4.3751 9.78426L4.9387 9.43767L5.55413 9.19797L6.20195 9.07812H6.86273L7.51379 9.19797L8.12922 9.43767L8.68958 9.78426L9.17868 10.2312L9.57386 10.7592L9.86861 11.3487L10.05 11.9836L10.1115 12.6411L10.05 13.2987L9.86861 13.9335L9.57386 14.5263L9.17868 15.051L8.68958 15.498L8.12922 15.8446L7.51379 16.0843L6.86273 16.2042H6.20195L5.55413 16.0843L4.9387 15.8446L4.3751 15.498L3.88923 15.051L3.49082 14.5263L3.19606 13.9335L3.01467 13.2987L2.95312 12.6411Z" stroke="black" stroke-width="0.5"/>
<path d="M12.7451 17.0543V8.32812" stroke="black" stroke-width="0.5"/>
<path d="M12.7451 8.32812L13.3962 9.18973" stroke="black" stroke-width="0.5"/>
<path d="M13.3975 9.1875L14.0258 13.8615" stroke="black" stroke-width="0.5"/>
<path d="M14.0246 13.8594H12.7451" stroke="black" stroke-width="0.5"/>
<path d="M16.9888 11.2979L17.2382 11.2364L17.4649 11.055L17.6431 10.7732L17.7597 10.4201L17.7986 10.0282L17.7597 9.63628L17.6431 9.28322L17.4649 9.00141L17.2382 8.82326L16.9888 8.76172L16.7361 8.82326L16.5127 9.00141L16.3313 9.28322L16.2179 9.63628L16.1758 10.0282L16.2179 10.4201L16.3313 10.7732L16.5127 11.055L16.7361 11.2364L16.9888 11.2979Z" stroke="black" stroke-width="0.5"/>
<path d="M16.8014 11.2656L16.6006 15.6157" stroke="black" stroke-width="0.5"/>
<path d="M16.6006 15.6133V17.0514" stroke="black" stroke-width="0.5"/>
<path d="M16.6006 17.0508H16.9893" stroke="black" stroke-width="0.5"/>
<path d="M17.1768 11.2656L17.3743 15.6157" stroke="black" stroke-width="0.5"/>
<path d="M17.375 15.6133V17.0514" stroke="black" stroke-width="0.5"/>
<path d="M17.3737 17.0508H16.9883" stroke="black" stroke-width="0.5"/>
<path d="M19.8336 11.2656L19.6328 15.6157" stroke="black" stroke-width="0.5"/>
<path d="M19.6328 15.6133V17.0514" stroke="black" stroke-width="0.5"/>
<path d="M19.6328 17.0508H20.0215" stroke="black" stroke-width="0.5"/>
<path d="M20.209 11.2656L20.4066 15.6157" stroke="black" stroke-width="0.5"/>
<path d="M20.4072 15.6133V17.0514" stroke="black" stroke-width="0.5"/>
<path d="M20.406 17.0508H20.0205" stroke="black" stroke-width="0.5"/>
<path d="M20.2082 11.2656H19.2559" stroke="black" stroke-width="0.5"/>
<path d="M19.2559 11.2623V8.76172" stroke="black" stroke-width="0.5"/>
<path d="M19.8301 11.2656H20.7824" stroke="black" stroke-width="0.5"/>
<path d="M20.7812 11.2623V8.76172" stroke="black" stroke-width="0.5"/>
<path d="M20.0332 11.2623V8.76172" stroke="black" stroke-width="0.5"/>
<path d="M1 6H23V19.3548H1V6Z" stroke="black" stroke-width="0.5"/>
</svg>
