<svg width="24" height="24" viewBox="0 0 24 24" fill="none" xmlns="http://www.w3.org/2000/svg">
<path d="M19.0717 7.69922H5V22.0026H19.0717" stroke="black" stroke-width="0.5" stroke-linejoin="bevel"/>
<path d="M5 5.97518V2" stroke="black" stroke-width="0.5" stroke-linejoin="bevel"/>
<path d="M19.0713 2V5.97518" stroke="black" stroke-width="0.5" stroke-linejoin="bevel"/>
<path d="M19.0717 5.97518H5V2" stroke="black" stroke-width="0.5" stroke-linejoin="bevel"/>
<path d="M19.0717 22.0026H5V7.69922" stroke="black" stroke-width="0.5" stroke-linejoin="bevel"/>
<path d="M19.0713 7.69922V22.0026" stroke="black" stroke-width="0.5" stroke-linejoin="bevel"/>
<path d="M5 2H19.0717" stroke="black" stroke-width="0.5" stroke-linejoin="bevel"/>
<path fill-rule="evenodd" clip-rule="evenodd" d="M16.4991 14.4248C16.4991 11.9495 14.4993 9.9375 12.0362 9.9375C9.57303 9.9375 7.57324 11.9495 7.57324 14.4248C7.57324 16.9002 9.57303 18.9121 12.0362 18.9121C14.4993 18.9121 16.4991 16.9002 16.4991 14.4248Z" stroke="black" stroke-width="0.5" stroke-linejoin="bevel"/>
<path fill-rule="evenodd" clip-rule="evenodd" d="M17.6698 4.04925C17.6698 3.51272 17.243 3.08594 16.7187 3.08594C16.1822 3.08594 15.7676 3.51272 15.7676 4.04925C15.7676 4.58578 16.1944 5.01256 16.7187 5.01256C17.2552 5.01256 17.6698 4.58578 17.6698 4.04925Z" stroke="black" stroke-width="0.5" stroke-linejoin="bevel"/>
<path d="M13.0598 15.1326C11.3283 14.1937 9.20653 14.5351 7.84082 15.9496" stroke="black" stroke-width="0.5" stroke-linejoin="bevel"/>
<path d="M16.4986 14.4267C14.8159 14.0243 13.0722 14.7071 12.0967 16.1338" stroke="black" stroke-width="0.5" stroke-linejoin="bevel"/>
<path d="M15.7547 16.9156C13.4135 15.8304 10.7065 15.8792 8.41406 17.062" stroke="black" stroke-width="0.5" stroke-linejoin="bevel"/>
</svg>
