<svg width="24" height="24" viewBox="0 0 24 24" fill="none" xmlns="http://www.w3.org/2000/svg">
<path d="M1 13.5809L1.17721 13.4429L1.35442 13.3048L1.44418 13.2357L1.53163 13.169L1.62139 13.1022L1.70885 13.0355L1.7986 12.9688L1.88606 12.9043L1.97351 12.8422L2.06327 12.78L2.15073 12.7202L2.24048 12.6604L2.32794 12.6028L2.41769 12.5476L2.46142 12.52L2.50515 12.4924L2.54888 12.467L2.5926 12.4394L2.63633 12.4141L2.68236 12.3888L2.72609 12.3658L2.76982 12.3405L2.81354 12.3174L2.85727 12.2967L2.901 12.2737L2.94703 12.253L2.99076 12.2323L3.03448 12.2116L3.07821 12.1909L3.12194 12.1725L3.16567 12.1541L3.20939 12.1356L3.25542 12.1195L3.29915 12.1034L3.34288 12.0873L3.38661 12.0735L3.43033 12.0597L3.47406 12.0459L3.51779 12.0344L3.56152 12.0229L3.60524 12.0113L3.65127 12.0021L3.695 11.9929L3.73873 11.9837L3.78246 11.9768L3.82618 11.9699L3.86991 11.9653L3.91364 11.9607L3.95737 11.9561L4.00109 11.9538L4.04482 11.9515L4.08855 11.9492H4.13228L4.176 11.9515L4.21973 11.9538L4.26346 11.9561L4.30719 11.9607L4.35092 11.9653L4.39464 11.9722L4.43837 11.9791L4.4821 11.986L4.52582 11.9975L4.56955 12.0068L4.61328 12.0183L4.65701 12.0321L4.69843 12.0459L4.74216 12.0597L4.78589 12.0758L4.82962 12.0942L4.87334 12.1126L4.91707 12.131L4.9608 12.1494L5.00453 12.1701L5.04826 12.1932L5.08968 12.2139L5.13341 12.2369L5.17714 12.2622L5.22086 12.2852L5.26459 12.3105L5.30832 12.3359L5.34974 12.3612L5.39347 12.3888L5.4372 12.4164L5.48093 12.444L5.56608 12.4993L5.65354 12.5568L5.73869 12.6166L5.82615 12.6742L5.9113 12.734L6.08391 12.856L6.17136 12.9135L6.25652 12.9734L6.34167 13.0309L6.42913 13.0884L6.51428 13.1437L6.55801 13.169L6.59943 13.1966L6.64316 13.2219L6.68689 13.2472L6.72831 13.2703L6.77204 13.2956L6.81577 13.3186L6.8572 13.3416L6.90092 13.3623L6.94465 13.383L6.98608 13.4037L7.02981 13.4221L7.07123 13.4406L7.11496 13.459L7.15869 13.4751L7.20011 13.4912L7.24384 13.505L7.28757 13.5188L7.32899 13.5303L7.37272 13.5418L7.41415 13.551L7.45788 13.5602L7.5016 13.5671L7.54303 13.574L7.58676 13.5787L7.62818 13.5809L7.67191 13.5832H7.71564H7.75706L7.80079 13.5809L7.84222 13.5763L7.88595 13.5694L7.92737 13.5625L7.9711 13.5556L8.01483 13.5441L8.05625 13.5349L8.09998 13.5211L8.14141 13.5073L8.18513 13.4935L8.22656 13.4774L8.27029 13.459L8.31402 13.4429L8.35544 13.4221L8.39917 13.4037L8.4406 13.3807L8.48432 13.36L8.52805 13.337L8.56948 13.314L8.6132 13.2887L8.65463 13.2633L8.69836 13.238L8.74209 13.2127L8.78351 13.1851L8.82724 13.1575L8.87097 13.1299L8.91239 13.0999L8.99755 13.0424L9.085 12.9826L9.17016 12.9227L9.34276 12.7985L9.51537 12.6765L9.60053 12.6166L9.68798 12.5568L9.77314 12.497L9.81687 12.4693L9.86059 12.4417L9.90432 12.4141L9.94805 12.3865L9.98947 12.3612L10.0332 12.3359L10.0769 12.3105L10.1207 12.2852L10.1644 12.2622L10.2081 12.2392L10.2518 12.2185L10.2956 12.1955L10.3393 12.1771L10.383 12.1563L10.4267 12.1402L10.4705 12.1218L10.5142 12.1057L10.5579 12.0919L10.6017 12.0781L10.6454 12.0666L10.6891 12.0551L10.7328 12.0459L10.7766 12.0367L10.8203 12.0298L10.864 12.0252L10.9078 12.0206L10.9538 12.0183L10.9975 12.016L11.0412 12.0183L11.085 12.0206L11.1287 12.0229L11.1747 12.0298L11.2184 12.0367L11.2622 12.0436L11.3082 12.0528L11.3519 12.0643L11.3957 12.0758L11.4417 12.0896L11.4854 12.1057L11.5291 12.1218L11.5752 12.1379L11.6189 12.1563L11.6626 12.1748L11.7087 12.1955L11.7524 12.2162L11.7984 12.2392L11.8421 12.2599L11.8859 12.2852L11.9319 12.3082L11.9756 12.3336L12.0217 12.3589L12.0654 12.3865L12.1091 12.4141L12.1551 12.4417L12.1989 12.4693L12.2449 12.497L12.3324 12.5568L12.4221 12.6166L12.5119 12.6765L12.6891 12.8008L12.8663 12.925L12.956 12.9872L13.0435 13.047L13.1333 13.1045L13.177 13.1345L13.2207 13.1621L13.2644 13.1897L13.3082 13.2173L13.3519 13.2449L13.3956 13.2703L13.4394 13.2956L13.4831 13.3209L13.5268 13.3439L13.5705 13.3669L13.6143 13.3899L13.6557 13.4106L13.6994 13.4314L13.7431 13.4498L13.7869 13.4682L13.8283 13.4866L13.872 13.5027L13.9158 13.5165L13.9572 13.5303L14.0009 13.5441L14.0446 13.5556L14.0861 13.5648L14.1275 13.574L14.1712 13.5809L14.2126 13.5879L14.2564 13.5902L14.2978 13.5947H14.3392H14.3806L14.4221 13.5925L14.4658 13.5879L14.4865 13.5855L14.5072 13.5832L14.5279 13.5787L14.5487 13.5763L14.5901 13.5671L14.6315 13.5556L14.6706 13.5441L14.7121 13.528L14.7535 13.5142L14.7949 13.4958L14.834 13.4774L14.8755 13.459L14.9169 13.4359L14.956 13.4152L14.9974 13.3899L15.0389 13.3669L15.078 13.3416L15.1194 13.314L15.1585 13.2864L15.2 13.2587L15.2391 13.2288L15.2805 13.1989L15.3196 13.1667L15.3588 13.1368L15.4002 13.1045L15.4393 13.07L15.4784 13.0378L15.559 12.9711L15.6395 12.902L15.7201 12.833L15.8789 12.6949L15.9594 12.6258L16.04 12.5591L16.0791 12.5246L16.1205 12.4924L16.1597 12.4601L16.2011 12.4279L16.2402 12.398L16.2816 12.3681L16.3208 12.3382L16.3622 12.3082L16.4013 12.2806L16.4427 12.2553L16.4842 12.2277L16.5256 12.2047L16.5647 12.1794L16.6061 12.1586L16.6476 12.1356L16.689 12.1172L16.7304 12.0988L16.7719 12.0804L16.8133 12.0643L16.8547 12.0505L16.8961 12.039L16.9376 12.0275L16.979 12.0183L17.0227 12.0091L17.0641 12.0045L17.1056 11.9998L17.1493 11.9975H17.1907H17.2344L17.2759 11.9998L17.3196 12.0021L17.3633 12.0091L17.4071 12.0137L17.4485 12.0229L17.4922 12.0321L17.5359 12.0413L17.5797 12.0528L17.6234 12.0666L17.6671 12.0804L17.7108 12.0965L17.7546 12.1126L17.7983 12.1287L17.842 12.1471L17.8858 12.1679L17.9295 12.1863L17.9732 12.2093L18.0192 12.23L18.063 12.253L18.1067 12.276L18.1504 12.3013L18.1965 12.3267L18.2402 12.352L18.2839 12.3773L18.3299 12.4049L18.3737 12.4325L18.4197 12.4601L18.5071 12.5154L18.5969 12.5752L18.6867 12.635L18.7764 12.6949L18.9559 12.8169L19.0457 12.8767L19.1354 12.9365L19.2229 12.9964L19.3127 13.0562L19.4024 13.1138L19.4461 13.1414L19.4922 13.169L19.5359 13.1943L19.5796 13.2219L19.6257 13.2472L19.6694 13.2726L19.7131 13.2979L19.7568 13.3209L19.8006 13.3439L19.8466 13.3669L19.8903 13.3876L19.934 13.4083L19.9778 13.4267L20.0215 13.4452L20.0652 13.4636L20.109 13.4797L20.1527 13.4958L20.1964 13.5096L20.2401 13.5234L20.2816 13.5349L20.3253 13.5464L20.369 13.5556L20.4128 13.5648L20.4542 13.5717L20.4979 13.5763L20.5393 13.5809L20.5831 13.5832L20.6245 13.5855H20.6682L20.7096 13.5832L20.7511 13.5809L20.7948 13.5763L20.8362 13.5694L20.8776 13.5625L20.9191 13.5556L20.9605 13.5464L21.0019 13.5349L21.0433 13.5234L21.0848 13.5096L21.1262 13.4958L21.1676 13.4797L21.2091 13.4636L21.2505 13.4452L21.2896 13.4267L21.331 13.4083L21.3725 13.3876L21.4116 13.3646L21.453 13.3416L21.4944 13.3186L21.5336 13.2956L21.575 13.2703L21.6141 13.2426L21.6555 13.215L21.6947 13.1874L21.7361 13.1598L21.7752 13.1299L21.8143 13.0999L21.8558 13.07L21.8949 13.0378L21.934 13.0056L21.9754 12.9734L22.0146 12.9388L22.0537 12.9043L22.0928 12.8698L22.1342 12.8353L22.1734 12.8008L22.2125 12.7639L22.2516 12.7271L22.3322 12.6535L22.4104 12.5775L22.4887 12.4993L22.5669 12.421L22.6452 12.3405L22.7234 12.2599L22.8017 12.1794L22.9582 12.016" stroke="black" stroke-width="0.5"/>
<path d="M1.03906 14.8466L1.21627 14.7085L1.39349 14.5704L1.48324 14.5013L1.5707 14.4346L1.66046 14.3679L1.74791 14.3011L1.83767 14.2344L1.92512 14.1699L2.01488 14.1078L2.10233 14.0457L2.19209 13.9858L2.27955 13.926L2.367 13.8684L2.45676 13.8109L2.50049 13.7856L2.54421 13.758L2.58794 13.7304L2.63167 13.7051L2.6777 13.6797L2.72142 13.6544L2.76515 13.6314L2.80888 13.6061L2.85261 13.5831L2.89864 13.5601L2.94236 13.5393L2.98609 13.5163L3.02982 13.4956L3.07355 13.4772L3.11728 13.4565L3.161 13.4381L3.20703 13.4197L3.25076 13.4013L3.29449 13.3851L3.33821 13.369L3.38194 13.3529L3.42567 13.3391L3.4694 13.3253L3.51312 13.3115L3.55685 13.3L3.60288 13.2885L3.64661 13.277L3.69034 13.2678L3.73406 13.2586L3.77779 13.2494L3.82152 13.2425L3.86525 13.2355L3.90897 13.2287L3.9527 13.224L3.99643 13.2217L4.04016 13.2171H4.08388L4.12761 13.2148H4.17134L4.21507 13.2171L4.2588 13.2194L4.30252 13.2217L4.34625 13.2263L4.38998 13.231L4.43371 13.2379L4.47743 13.2448L4.52116 13.2517L4.56489 13.2609L4.60862 13.2724L4.65234 13.2839L4.69607 13.2977L4.7398 13.3115L4.78353 13.3253L4.82495 13.3414L4.86868 13.3598L4.91241 13.3759L4.95614 13.3967L4.99986 13.4151L5.04359 13.4358L5.08732 13.4588L5.13105 13.4795L5.17247 13.5025L5.2162 13.5255L5.25993 13.5508L5.30366 13.5762L5.34738 13.6015L5.39111 13.6268L5.43254 13.6544L5.47626 13.682L5.51999 13.7096L5.60515 13.7649L5.6926 13.8224L5.78006 13.88L5.86521 13.9398L5.95036 13.9996L6.12297 14.1193L6.21043 14.1792L6.29558 14.239L6.38304 14.2965L6.46819 14.3541L6.55334 14.407L6.59707 14.4346L6.6408 14.4599L6.68223 14.4875L6.72595 14.5129L6.76968 14.5359L6.81111 14.5612L6.85483 14.5842L6.89856 14.6072L6.93999 14.6279L6.98372 14.6486L7.02514 14.6694L7.06887 14.6878L7.1126 14.7062L7.15402 14.7246L7.19775 14.7407L7.24148 14.7568L7.2829 14.7706L7.32663 14.7844L7.36806 14.7959L7.41179 14.8074L7.45551 14.8166L7.49694 14.8259L7.54067 14.8328L7.58209 14.8397L7.62582 14.8443L7.66955 14.8466L7.71098 14.8489H7.7547H7.79613L7.83986 14.8443L7.88128 14.842L7.92501 14.8351L7.96874 14.8282L8.01016 14.8189L8.05389 14.8097L8.09532 14.7982L8.13905 14.7867L8.18277 14.7729L8.2242 14.7591L8.26793 14.743L8.30935 14.7246L8.35308 14.7062L8.39451 14.6878L8.43823 14.6671L8.48196 14.6463L8.52339 14.6256L8.56712 14.6026L8.60854 14.5796L8.65227 14.5543L8.696 14.529L8.73742 14.5037L8.78115 14.476L8.82258 14.4507L8.8663 14.4231L8.91003 14.3955L8.95146 14.3656L9.03891 14.308L9.12407 14.2482L9.20922 14.1884L9.38183 14.0641L9.55444 13.9421L9.63959 13.88L9.72705 13.8224L9.8122 13.7626L9.85593 13.735L9.89966 13.7074L9.94338 13.6797L9.98711 13.6521L10.0308 13.6268L10.0723 13.5992L10.116 13.5762L10.1597 13.5508L10.2034 13.5278L10.2472 13.5048L10.2909 13.4818L10.3346 13.4611L10.3784 13.4427L10.4221 13.422L10.4658 13.4036L10.5095 13.3875L10.5533 13.3713L10.597 13.3575L10.6407 13.3437L10.6845 13.3322L10.7282 13.3207L10.7719 13.3092L10.8156 13.3023L10.8594 13.2954L10.9031 13.2885L10.9491 13.2862L10.9928 13.2839L11.0366 13.2816L11.0803 13.2839L11.124 13.2862L11.1701 13.2885L11.2138 13.2931L11.2575 13.3L11.3012 13.3092L11.3473 13.3184L11.391 13.3299L11.4347 13.3414L11.4808 13.3552L11.5245 13.3713L11.5682 13.3851L11.6142 13.4036L11.658 13.422L11.704 13.4404L11.7477 13.4611L11.7915 13.4818L11.8375 13.5025L11.8812 13.5255L11.9272 13.5508L11.971 13.5739L12.0147 13.5992L12.0607 13.6245L12.1044 13.6521L12.1505 13.6797L12.1942 13.7074L12.2379 13.735L12.284 13.7626L12.3737 13.8224L12.4612 13.8823L12.5509 13.9421L12.7281 14.0664L12.9077 14.1907L12.9951 14.2528L13.0826 14.3126L13.1723 14.3702L13.2161 14.4001L13.2598 14.4277L13.3035 14.4553L13.3472 14.4829L13.391 14.5106L13.4347 14.5359L13.4784 14.5612L13.5221 14.5865L13.5659 14.6095L13.6096 14.6325L13.6533 14.6556L13.6971 14.6763L13.7385 14.697L13.7822 14.7154L13.8259 14.7338L13.8697 14.7522L13.9111 14.7683L13.9548 14.7821L13.9985 14.7959L14.04 14.8097L14.0837 14.8213L14.1251 14.8305L14.1689 14.8397L14.2103 14.8466L14.2517 14.8512L14.2954 14.8558L14.3369 14.8581L14.3783 14.8604H14.4197L14.4634 14.8581L14.5049 14.8535L14.5256 14.8512L14.5463 14.8489L14.567 14.8443L14.5877 14.8397L14.6291 14.8328L14.6706 14.8213L14.712 14.8074L14.7511 14.7936L14.7925 14.7775L14.834 14.7614L14.8754 14.743L14.9145 14.7223L14.9559 14.7016L14.9974 14.6809L15.0365 14.6556L15.0779 14.6325L15.1171 14.6049L15.1585 14.5796L15.1976 14.552L15.239 14.5221L15.2782 14.4945L15.3196 14.4622L15.3587 14.4323L15.4001 14.4001L15.4393 14.3679L15.4784 14.3356L15.5198 14.3034L15.5981 14.2367L15.6786 14.1676L15.7592 14.0986L15.918 13.9582L15.9985 13.8915L16.0791 13.8224L16.1182 13.7902L16.1596 13.758L16.1987 13.7258L16.2402 13.6935L16.2793 13.6636L16.3207 13.6337L16.3598 13.6038L16.4013 13.5739L16.4427 13.5463L16.4818 13.5209L16.5232 13.4933L16.5647 13.4703L16.6038 13.445L16.6452 13.422L16.6866 13.4013L16.7281 13.3828L16.7695 13.3621L16.8109 13.346L16.8523 13.3299L16.8938 13.3161L16.9352 13.3023L16.9766 13.2931L17.0204 13.2839L17.0618 13.2747L17.1032 13.2701L17.1469 13.2655L17.1884 13.2632L17.2321 13.2609L17.2735 13.2632L17.3172 13.2655L17.3587 13.2678L17.4024 13.2724L17.4461 13.2793L17.4898 13.2885L17.5313 13.2977L17.575 13.3069L17.6187 13.3184L17.6625 13.3322L17.7062 13.346L17.7499 13.3621L17.7936 13.3782L17.8374 13.3943L17.8811 13.4128L17.9248 13.4335L17.9686 13.4519L18.0146 13.4726L18.0583 13.4956L18.102 13.5186L18.1458 13.5416L18.1918 13.567L18.2355 13.5923L18.2792 13.6176L18.3253 13.6429L18.369 13.6705L18.4127 13.6981L18.4588 13.7258L18.5485 13.781L18.636 13.8408L18.7257 13.8984L18.8155 13.9605L18.995 14.0825L19.0848 14.1423L19.1745 14.2022L19.2643 14.262L19.3517 14.3218L19.4415 14.3771L19.4875 14.407L19.5312 14.4323L19.575 14.4599L19.621 14.4875L19.6647 14.5129L19.7084 14.5382L19.7522 14.5612L19.7959 14.5865L19.8419 14.6095L19.8857 14.6302L19.9294 14.6533L19.9731 14.674L20.0168 14.6924L20.0606 14.7108L20.1043 14.7292L20.148 14.7453L20.1918 14.7614L20.2355 14.7752L20.2792 14.789L20.3229 14.8005L20.3644 14.8121L20.4081 14.8213L20.4518 14.8305L20.4932 14.8374L20.537 14.842L20.5784 14.8466L20.6221 14.8489L20.6636 14.8512L20.7073 14.8489H20.7487L20.7901 14.8443L20.8339 14.842L20.8753 14.8351L20.9167 14.8282L20.9581 14.8213L20.9996 14.8097L21.041 14.8005L21.0824 14.789L21.1238 14.7752L21.1653 14.7614L21.2067 14.7453L21.2481 14.7292L21.2895 14.7108L21.3287 14.6924L21.3701 14.674L21.4115 14.6533L21.453 14.6302L21.4921 14.6072L21.5335 14.5842L21.5726 14.5589L21.6141 14.5336L21.6532 14.5083L21.6946 14.4806L21.7337 14.453L21.7752 14.4254L21.8143 14.3955L21.8557 14.3656L21.8948 14.3356L21.934 14.3034L21.9754 14.2712L22.0145 14.239L22.0536 14.2045L22.0928 14.1699L22.1342 14.1354L22.1733 14.1009L22.2124 14.0664L22.2516 14.0296L22.2907 13.9927L22.3712 13.9191L22.4495 13.8431L22.5277 13.7649L22.606 13.6866L22.6842 13.6061L22.7625 13.5255L22.843 13.445L22.9995 13.2816" stroke="black" stroke-width="0.5"/>
<path d="M12.4516 9.62078L11.2549 7.64844" stroke="black" stroke-width="0.5"/>
<path d="M11.2549 7.64784L13.9384 6" stroke="black" stroke-width="0.5"/>
<path d="M13.9388 6L9.47168 6.55925" stroke="black" stroke-width="0.5"/>
<path d="M9.47168 6.55859L9.94118 10.3123" stroke="black" stroke-width="0.5"/>
<path d="M9.94027 10.3125L5.16016 12.2043" stroke="black" stroke-width="0.5"/>
<path d="M13.2393 9.10684L13.283 8.7409L13.4073 8.39568L13.6098 8.08728L13.8791 7.83643L14.1967 7.65232L14.5511 7.54645L14.917 7.52344L15.2806 7.58787L15.619 7.73517L15.9135 7.95381L16.1506 8.23688L16.3163 8.56599L16.4015 8.92271V9.29095L16.3163 9.64998L16.1506 9.97908L15.9135 10.2622L15.619 10.4808L15.2806 10.6258L14.917 10.6902L14.5511 10.6695L14.1967 10.5636L13.8791 10.3795L13.6098 10.1264L13.4073 9.82028L13.283 9.47276L13.2393 9.10684Z" stroke="black" stroke-width="0.5"/>
<path d="M1.03906 14.8477V17.8418" stroke="black" stroke-width="0.5"/>
<path d="M1.03906 17.8398H22.9995" stroke="black" stroke-width="0.5"/>
<path d="M23 17.8404V13.2812" stroke="black" stroke-width="0.5"/>
</svg>
