<svg width="207" height="28" viewBox="0 0 207 28" fill="none" xmlns="http://www.w3.org/2000/svg">
<path d="M13.2874 0.875185C15.7354 0.875185 17.8834 1.39119 19.7314 2.42319C21.5794 3.45519 23.0074 4.94319 24.0154 6.88719C25.0474 8.80719 25.5634 11.1472 25.5634 13.9072C25.5634 16.5952 25.0354 18.9472 23.9794 20.9632C22.9474 22.9792 21.4954 24.5512 19.6234 25.6792C17.7754 26.8072 15.6514 27.3712 13.2514 27.3712C10.8034 27.3712 8.65537 26.8552 6.80737 25.8232C4.95937 24.7912 3.51937 23.3032 2.48737 21.3592C1.47937 19.4152 0.975374 17.0752 0.975374 14.3392C0.975374 11.6512 1.50337 9.29919 2.55937 7.28319C3.61537 5.26719 5.06737 3.69519 6.91537 2.56719C8.76337 1.43919 10.8874 0.875185 13.2874 0.875185ZM13.1434 1.52319C11.7274 1.52319 10.4914 2.06319 9.43537 3.14319C8.40337 4.22319 7.59937 5.71119 7.02337 7.60719C6.44737 9.50319 6.15937 11.6992 6.15937 14.1952C6.15937 16.7392 6.48337 18.9592 7.13137 20.8552C7.77937 22.7272 8.65537 24.1792 9.75937 25.2112C10.8634 26.2192 12.0754 26.7232 13.3954 26.7232C14.8114 26.7232 16.0354 26.1832 17.0674 25.1032C18.1234 24.0232 18.9394 22.5352 19.5154 20.6392C20.0914 18.7192 20.3794 16.5232 20.3794 14.0512C20.3794 11.4832 20.0554 9.26319 19.4074 7.39119C18.7594 5.51919 17.8834 4.07919 16.7794 3.07119C15.6994 2.03919 14.4874 1.52319 13.1434 1.52319ZM44.8374 7.85919V22.9792C44.8374 24.0592 45.0174 24.8632 45.3774 25.3912C45.7374 25.8952 46.3734 26.1472 47.2854 26.1472V26.9032C46.5414 26.8312 45.7974 26.7952 45.0534 26.7952C44.1654 26.7952 43.3134 26.8312 42.4974 26.9032C41.7054 26.9752 40.9734 27.1072 40.3014 27.2992V23.6992C39.7014 25.0192 38.8734 25.9672 37.8174 26.5432C36.7854 27.0952 35.6694 27.3712 34.4694 27.3712C33.5334 27.3712 32.7414 27.2392 32.0934 26.9752C31.4694 26.7352 30.9654 26.3992 30.5814 25.9672C30.1734 25.5112 29.8854 24.9112 29.7174 24.1672C29.5494 23.4232 29.4654 22.4632 29.4654 21.2872V12.1792C29.4654 11.0992 29.2854 10.3072 28.9254 9.80319C28.5894 9.27519 27.9534 9.01119 27.0174 9.01119V8.25519C27.7854 8.32719 28.5294 8.36319 29.2494 8.36319C30.1374 8.36319 30.9774 8.32719 31.7694 8.25519C32.5854 8.15919 33.3294 8.02719 34.0014 7.85919V22.5472C34.0014 23.1952 34.0494 23.7712 34.1454 24.2752C34.2654 24.7792 34.4934 25.1872 34.8294 25.4992C35.1654 25.7872 35.6694 25.9312 36.3414 25.9312C37.4694 25.9312 38.4054 25.4632 39.1494 24.5272C39.9174 23.5672 40.3014 22.3912 40.3014 20.9992V12.1792C40.3014 11.0992 40.1214 10.3072 39.7614 9.80319C39.4254 9.27519 38.7894 9.01119 37.8534 9.01119V8.25519C38.6214 8.32719 39.3654 8.36319 40.0854 8.36319C40.9734 8.36319 41.8134 8.32719 42.6054 8.25519C43.4214 8.15919 44.1654 8.02719 44.8374 7.85919ZM60.1619 7.75119C60.9059 7.75119 61.5179 7.90719 61.9979 8.21919C62.5019 8.53119 62.8739 8.92719 63.1139 9.40719C63.3539 9.88719 63.4739 10.3912 63.4739 10.9192C63.4739 11.7112 63.2339 12.3712 62.7539 12.8992C62.2979 13.4272 61.6859 13.6912 60.9179 13.6912C60.1979 13.6912 59.6099 13.4992 59.1539 13.1152C58.6979 12.7312 58.4699 12.2032 58.4699 11.5312C58.4699 10.9312 58.6139 10.4272 58.9019 10.0192C59.2139 9.61119 59.5619 9.28719 59.9459 9.04719C59.6819 8.90319 59.3819 8.85519 59.0459 8.90319C58.2779 8.97519 57.6059 9.31119 57.0299 9.91119C56.4539 10.4872 55.9979 11.1832 55.6619 11.9992C55.3499 12.7912 55.1939 13.5472 55.1939 14.2672V23.1592C55.1939 24.3352 55.4939 25.1272 56.0939 25.5352C56.6939 25.9192 57.5699 26.1112 58.7219 26.1112V26.8672C58.1699 26.8432 57.3659 26.8192 56.3099 26.7952C55.2779 26.7472 54.1979 26.7232 53.0699 26.7232C52.1339 26.7232 51.1979 26.7472 50.2619 26.7952C49.3499 26.8192 48.6659 26.8432 48.2099 26.8672V26.1112C49.0979 26.1112 49.7219 25.9312 50.0819 25.5712C50.4659 25.2112 50.6579 24.5272 50.6579 23.5192V12.1792C50.6579 11.0992 50.4779 10.3072 50.1179 9.80319C49.7819 9.27519 49.1459 9.01119 48.2099 9.01119V8.25519C48.9779 8.32719 49.7219 8.36319 50.4419 8.36319C51.3299 8.36319 52.1699 8.32719 52.9619 8.25519C53.7779 8.15919 54.5219 8.02719 55.1939 7.85919V11.6032C55.4819 10.9312 55.8539 10.3072 56.3099 9.73119C56.7899 9.15519 57.3539 8.68719 58.0019 8.32719C58.6739 7.94319 59.3939 7.75119 60.1619 7.75119ZM71.4932 1.37919C72.0932 1.40319 72.8612 1.42719 73.7972 1.45119C74.7332 1.47519 75.6692 1.48719 76.6052 1.48719C77.7812 1.48719 78.8972 1.47519 79.9532 1.45119C81.0092 1.42719 81.7532 1.41519 82.1852 1.41519C85.4012 1.41519 87.7892 2.07519 89.3492 3.39519C90.9332 4.71519 91.7252 6.41919 91.7252 8.50719C91.7252 9.37119 91.5692 10.2832 91.2572 11.2432C90.9452 12.1792 90.4052 13.0552 89.6372 13.8712C88.8692 14.6632 87.8132 15.3112 86.4692 15.8152C85.1492 16.3192 83.4572 16.5712 81.3932 16.5712H77.7932V15.8512H81.0332C82.5452 15.8512 83.6972 15.5272 84.4892 14.8792C85.3052 14.2312 85.8452 13.3792 86.1092 12.3232C86.3972 11.2672 86.5412 10.1272 86.5412 8.90319C86.5412 6.62319 86.1692 4.91919 85.4252 3.79119C84.6812 2.66319 83.3972 2.09919 81.5732 2.09919C80.5892 2.09919 79.9412 2.30319 79.6292 2.71119C79.3412 3.11919 79.1972 3.94719 79.1972 5.19519V22.9072C79.1972 23.8192 79.2932 24.5032 79.4852 24.9592C79.6772 25.4152 80.0492 25.7152 80.6012 25.8592C81.1532 26.0032 81.9452 26.0872 82.9772 26.1112V26.8672C82.2812 26.8192 81.3812 26.7952 80.2772 26.7952C79.1732 26.7712 78.0332 26.7592 76.8572 26.7592C75.8492 26.7592 74.8772 26.7712 73.9412 26.7952C73.0052 26.7952 72.1892 26.8192 71.4932 26.8672V26.1472C72.2852 26.0992 72.8732 26.0032 73.2572 25.8592C73.6652 25.7152 73.9292 25.4272 74.0492 24.9952C74.1932 24.5632 74.2652 23.9152 74.2652 23.0512V5.19519C74.2652 4.30719 74.1932 3.65919 74.0492 3.25119C73.9292 2.81919 73.6652 2.53119 73.2572 2.38719C72.8732 2.21919 72.2852 2.12319 71.4932 2.09919V1.37919ZM97.2082 27.1192C95.6242 27.1192 94.4722 26.7112 93.7522 25.8952C93.0322 25.0792 92.6722 24.0472 92.6722 22.7992C92.6722 21.7912 92.9122 20.9632 93.3922 20.3152C93.8722 19.6432 94.4842 19.1032 95.2282 18.6952C95.9962 18.2872 96.8002 17.9392 97.6402 17.6512C98.4802 17.3392 99.2722 17.0512 100.016 16.7872C100.76 16.4992 101.372 16.1872 101.852 15.8512C102.332 15.4912 102.572 15.0352 102.572 14.4832V11.8552C102.572 11.0872 102.452 10.4632 102.212 9.98319C101.996 9.47919 101.66 9.10719 101.204 8.86719C100.772 8.60319 100.22 8.47119 99.5482 8.47119C99.0442 8.47119 98.5162 8.54319 97.9642 8.68719C97.4122 8.83119 96.9562 9.10719 96.5962 9.51519C97.2202 9.68319 97.7002 9.99519 98.0362 10.4512C98.3962 10.9072 98.5762 11.4592 98.5762 12.1072C98.5762 12.8512 98.3242 13.4392 97.8202 13.8712C97.3402 14.2792 96.7282 14.4832 95.9842 14.4832C95.1922 14.4832 94.5922 14.2312 94.1842 13.7272C93.7762 13.2232 93.5722 12.6352 93.5722 11.9632C93.5722 11.2912 93.7402 10.7392 94.0762 10.3072C94.4122 9.85119 94.8802 9.44319 95.4802 9.08319C96.0802 8.67519 96.8482 8.35119 97.7842 8.11119C98.7202 7.87119 99.7402 7.75119 100.844 7.75119C101.9 7.75119 102.836 7.87119 103.652 8.11119C104.468 8.32719 105.164 8.72319 105.74 9.29919C106.316 9.85119 106.688 10.5352 106.856 11.3512C107.024 12.1672 107.108 13.1632 107.108 14.3392V24.2032C107.108 24.8032 107.168 25.2352 107.288 25.4992C107.432 25.7392 107.672 25.8592 108.008 25.8592C108.296 25.8592 108.548 25.7872 108.764 25.6432C108.98 25.4992 109.196 25.3432 109.412 25.1752L109.808 25.7872C109.28 26.1952 108.728 26.5192 108.152 26.7592C107.576 26.9992 106.88 27.1192 106.064 27.1192C104.696 27.1192 103.784 26.8192 103.328 26.2192C102.872 25.5952 102.632 24.8872 102.608 24.0952C101.96 25.1752 101.18 25.9552 100.268 26.4352C99.3562 26.8912 98.3362 27.1192 97.2082 27.1192ZM99.6202 25.1032C100.148 25.1032 100.664 24.9592 101.168 24.6712C101.672 24.3832 102.14 23.9032 102.572 23.2312V15.9592C102.26 16.4392 101.804 16.8352 101.204 17.1472C100.604 17.4592 99.9922 17.8072 99.3682 18.1912C98.7682 18.5512 98.2402 19.0312 97.7842 19.6312C97.3522 20.2312 97.1362 21.0592 97.1362 22.1152C97.1362 23.1472 97.3642 23.9032 97.8202 24.3832C98.3002 24.8632 98.9002 25.1032 99.6202 25.1032ZM122.075 7.75119C122.819 7.75119 123.431 7.90719 123.911 8.21919C124.415 8.53119 124.787 8.92719 125.027 9.40719C125.267 9.88719 125.387 10.3912 125.387 10.9192C125.387 11.7112 125.147 12.3712 124.667 12.8992C124.211 13.4272 123.599 13.6912 122.831 13.6912C122.111 13.6912 121.523 13.4992 121.067 13.1152C120.611 12.7312 120.383 12.2032 120.383 11.5312C120.383 10.9312 120.527 10.4272 120.815 10.0192C121.127 9.61119 121.475 9.28719 121.859 9.04719C121.595 8.90319 121.295 8.85519 120.959 8.90319C120.191 8.97519 119.519 9.31119 118.943 9.91119C118.367 10.4872 117.911 11.1832 117.575 11.9992C117.263 12.7912 117.107 13.5472 117.107 14.2672V23.1592C117.107 24.3352 117.407 25.1272 118.007 25.5352C118.607 25.9192 119.483 26.1112 120.635 26.1112V26.8672C120.083 26.8432 119.279 26.8192 118.223 26.7952C117.191 26.7472 116.111 26.7232 114.983 26.7232C114.047 26.7232 113.111 26.7472 112.175 26.7952C111.263 26.8192 110.579 26.8432 110.123 26.8672V26.1112C111.011 26.1112 111.635 25.9312 111.995 25.5712C112.379 25.2112 112.571 24.5272 112.571 23.5192V12.1792C112.571 11.0992 112.391 10.3072 112.031 9.80319C111.695 9.27519 111.059 9.01119 110.123 9.01119V8.25519C110.891 8.32719 111.635 8.36319 112.355 8.36319C113.243 8.36319 114.083 8.32719 114.875 8.25519C115.691 8.15919 116.435 8.02719 117.107 7.85919V11.6032C117.395 10.9312 117.767 10.3072 118.223 9.73119C118.703 9.15519 119.267 8.68719 119.915 8.32719C120.587 7.94319 121.307 7.75119 122.075 7.75119ZM132.73 2.35119V8.29119H137.338V9.01119H132.73V23.3392C132.73 24.2032 132.886 24.8152 133.198 25.1752C133.51 25.5352 133.954 25.7152 134.53 25.7152C135.082 25.7152 135.586 25.5112 136.042 25.1032C136.498 24.6712 136.906 23.9632 137.266 22.9792L137.914 23.2672C137.554 24.4432 136.99 25.4272 136.222 26.2192C135.478 26.9872 134.422 27.3712 133.054 27.3712C132.238 27.3712 131.542 27.2632 130.966 27.0472C130.414 26.8552 129.934 26.5672 129.526 26.1832C128.998 25.6312 128.638 24.9712 128.446 24.2032C128.278 23.4352 128.194 22.4152 128.194 21.1432V9.01119H125.026V8.29119H128.194V3.28719C129.058 3.26319 129.862 3.17919 130.606 3.03519C131.35 2.89119 132.058 2.66319 132.73 2.35119ZM150.787 7.75119C151.795 7.75119 152.599 7.88319 153.199 8.14719C153.823 8.41119 154.327 8.74719 154.711 9.15519C155.143 9.61119 155.443 10.1992 155.611 10.9192C155.803 11.6392 155.899 12.6112 155.899 13.8352V23.5192C155.899 24.5272 156.079 25.2112 156.439 25.5712C156.823 25.9312 157.459 26.1112 158.347 26.1112V26.8672C157.915 26.8432 157.243 26.8192 156.331 26.7952C155.443 26.7472 154.579 26.7232 153.739 26.7232C152.851 26.7232 151.987 26.7472 151.147 26.7952C150.307 26.8192 149.683 26.8432 149.275 26.8672V26.1112C150.043 26.1112 150.583 25.9312 150.895 25.5712C151.207 25.2112 151.363 24.5272 151.363 23.5192V12.6112C151.363 11.9632 151.303 11.3872 151.183 10.8832C151.063 10.3552 150.823 9.94719 150.463 9.65919C150.103 9.34719 149.587 9.19119 148.915 9.19119C147.739 9.19119 146.767 9.67119 145.999 10.6312C145.231 11.5672 144.847 12.7432 144.847 14.1592V23.5192C144.847 24.5272 145.003 25.2112 145.315 25.5712C145.627 25.9312 146.167 26.1112 146.935 26.1112V26.8672C146.527 26.8432 145.915 26.8192 145.099 26.7952C144.283 26.7472 143.455 26.7232 142.615 26.7232C141.727 26.7232 140.827 26.7472 139.915 26.7952C139.003 26.8192 138.319 26.8432 137.863 26.8672V26.1112C138.751 26.1112 139.375 25.9312 139.735 25.5712C140.119 25.2112 140.311 24.5272 140.311 23.5192V12.1792C140.311 11.0992 140.131 10.3072 139.771 9.80319C139.435 9.27519 138.799 9.01119 137.863 9.01119V8.25519C138.631 8.32719 139.375 8.36319 140.095 8.36319C140.983 8.36319 141.823 8.32719 142.615 8.25519C143.431 8.15919 144.175 8.02719 144.847 7.85919V11.4592C145.447 10.0912 146.275 9.13119 147.331 8.57919C148.387 8.02719 149.539 7.75119 150.787 7.75119ZM168.117 7.75119C170.229 7.75119 171.885 8.38719 173.085 9.65919C174.285 10.9312 174.885 12.9592 174.885 15.7432H162.753L162.717 15.0592H170.709C170.757 13.8832 170.685 12.8032 170.493 11.8192C170.301 10.8112 169.989 10.0072 169.557 9.40719C169.149 8.80719 168.609 8.50719 167.937 8.50719C167.025 8.50719 166.233 9.04719 165.561 10.1272C164.889 11.1832 164.469 12.9232 164.301 15.3472L164.445 15.5632C164.397 15.8752 164.361 16.2112 164.337 16.5712C164.337 16.9312 164.337 17.2912 164.337 17.6512C164.337 19.3072 164.577 20.6752 165.057 21.7552C165.537 22.8352 166.161 23.6272 166.929 24.1312C167.697 24.6352 168.489 24.8872 169.305 24.8872C170.145 24.8872 170.997 24.6832 171.861 24.2752C172.749 23.8432 173.529 23.0032 174.201 21.7552L174.885 22.0432C174.621 22.8832 174.177 23.7232 173.553 24.5632C172.953 25.3792 172.173 26.0512 171.213 26.5792C170.253 27.1072 169.125 27.3712 167.829 27.3712C166.197 27.3712 164.757 27.0112 163.509 26.2912C162.261 25.5712 161.289 24.5032 160.593 23.0872C159.897 21.6472 159.549 19.8952 159.549 17.8312C159.549 15.6472 159.909 13.8112 160.629 12.3232C161.373 10.8352 162.393 9.70719 163.689 8.93919C164.985 8.14719 166.461 7.75119 168.117 7.75119ZM188.312 7.75119C189.056 7.75119 189.668 7.90719 190.148 8.21919C190.652 8.53119 191.024 8.92719 191.264 9.40719C191.504 9.88719 191.624 10.3912 191.624 10.9192C191.624 11.7112 191.384 12.3712 190.904 12.8992C190.448 13.4272 189.836 13.6912 189.068 13.6912C188.348 13.6912 187.76 13.4992 187.304 13.1152C186.848 12.7312 186.62 12.2032 186.62 11.5312C186.62 10.9312 186.764 10.4272 187.052 10.0192C187.364 9.61119 187.712 9.28719 188.096 9.04719C187.832 8.90319 187.532 8.85519 187.196 8.90319C186.428 8.97519 185.756 9.31119 185.18 9.91119C184.604 10.4872 184.148 11.1832 183.812 11.9992C183.5 12.7912 183.344 13.5472 183.344 14.2672V23.1592C183.344 24.3352 183.644 25.1272 184.244 25.5352C184.844 25.9192 185.72 26.1112 186.872 26.1112V26.8672C186.32 26.8432 185.516 26.8192 184.46 26.7952C183.428 26.7472 182.348 26.7232 181.22 26.7232C180.284 26.7232 179.348 26.7472 178.412 26.7952C177.5 26.8192 176.816 26.8432 176.36 26.8672V26.1112C177.248 26.1112 177.872 25.9312 178.232 25.5712C178.616 25.2112 178.808 24.5272 178.808 23.5192V12.1792C178.808 11.0992 178.628 10.3072 178.268 9.80319C177.932 9.27519 177.296 9.01119 176.36 9.01119V8.25519C177.128 8.32719 177.872 8.36319 178.592 8.36319C179.48 8.36319 180.32 8.32719 181.112 8.25519C181.928 8.15919 182.672 8.02719 183.344 7.85919V11.6032C183.632 10.9312 184.004 10.3072 184.46 9.73119C184.94 9.15519 185.504 8.68719 186.152 8.32719C186.824 7.94319 187.544 7.75119 188.312 7.75119ZM199.04 7.75119C200.048 7.75119 200.912 7.89519 201.632 8.18319C202.352 8.47119 202.88 8.72319 203.216 8.93919C204.032 9.53919 204.524 9.15519 204.692 7.78719H205.484C205.436 8.48319 205.4 9.31119 205.376 10.2712C205.352 11.2072 205.34 12.4672 205.34 14.0512H204.548C204.428 13.1632 204.2 12.2992 203.864 11.4592C203.528 10.6192 203.036 9.92319 202.388 9.37119C201.74 8.79519 200.888 8.50719 199.832 8.50719C199.088 8.50719 198.464 8.72319 197.96 9.15519C197.48 9.58719 197.24 10.1992 197.24 10.9912C197.24 11.7112 197.456 12.3472 197.888 12.8992C198.32 13.4272 198.872 13.9312 199.544 14.4112C200.24 14.8672 200.96 15.3712 201.704 15.9232C202.976 16.8112 204.044 17.7112 204.908 18.6232C205.796 19.5112 206.24 20.6752 206.24 22.1152C206.24 23.2192 205.928 24.1672 205.304 24.9592C204.704 25.7272 203.9 26.3272 202.892 26.7592C201.908 27.1672 200.816 27.3712 199.616 27.3712C198.968 27.3712 198.38 27.3112 197.852 27.1912C197.324 27.0712 196.856 26.9152 196.448 26.7232C196.136 26.5552 195.848 26.3992 195.584 26.2552C195.344 26.1112 195.092 25.9912 194.828 25.8952C194.588 25.7752 194.372 25.8232 194.18 26.0392C194.012 26.2552 193.88 26.6152 193.784 27.1192H192.992C193.04 26.3512 193.076 25.4152 193.1 24.3112C193.124 23.2072 193.136 21.7432 193.136 19.9192H193.928C194.096 21.2392 194.348 22.4032 194.684 23.4112C195.044 24.3952 195.56 25.1752 196.232 25.7512C196.904 26.3032 197.768 26.5792 198.824 26.5792C199.472 26.5792 200.096 26.3632 200.696 25.9312C201.296 25.4992 201.596 24.7672 201.596 23.7352C201.596 22.6792 201.236 21.8032 200.516 21.1072C199.796 20.4112 198.896 19.6672 197.816 18.8752C197 18.2752 196.232 17.6872 195.512 17.1112C194.816 16.5352 194.24 15.8872 193.784 15.1672C193.352 14.4472 193.136 13.5952 193.136 12.6112C193.136 11.5312 193.412 10.6432 193.964 9.94719C194.516 9.22719 195.236 8.68719 196.124 8.32719C197.036 7.94319 198.008 7.75119 199.04 7.75119Z" fill="#232C38"/>
</svg>
