<svg width="34" height="34" viewBox="0 0 34 34" fill="none" xmlns="http://www.w3.org/2000/svg">
<path fill-rule="evenodd" clip-rule="evenodd" d="M25.3421 1.59318C26.9221 0.0265107 28.4921 0.0265104 30.0554 1.59151C32.4004 3.93984 30.0521 1.58484 32.4021 3.93818C33.9688 5.50651 33.9688 7.07651 32.3971 8.64651L27.6804 13.3632L20.6271 6.30818L25.3421 1.59151V1.59318ZM27.6938 3.94318L25.3354 6.30151L27.6871 8.65318L30.0454 6.29651L27.6938 3.94484V3.94318ZM18.5488 8.35318L25.6038 15.4082L8.81377 32.1965L2.4121 33.5032C2.15571 33.5516 1.89217 33.5478 1.63728 33.492C1.3824 33.4361 1.14141 33.3294 0.928769 33.1782C0.485436 32.8682 0.312103 32.3182 0.408769 31.5232L1.75877 25.1432L18.5504 8.35151L18.5488 8.35318ZM18.5488 13.0865L5.29877 26.3398L4.11544 29.8732L7.64877 28.6915L20.9021 15.4398L18.5504 13.0882L18.5488 13.0865Z" fill="#1C2B4F"/>
</svg>
